<?xml version="1.0" encoding="utf-8" standalone="no"?>
<!DOCTYPE svg PUBLIC "-//W3C//DTD SVG 1.1//EN"
  "http://www.w3.org/Graphics/SVG/1.1/DTD/svg11.dtd">
<svg xmlns:xlink="http://www.w3.org/1999/xlink" width="460.8pt" height="345.6pt" viewBox="0 0 460.8 345.6" xmlns="http://www.w3.org/2000/svg" version="1.1">
 <metadata>
  <rdf:RDF xmlns:dc="http://purl.org/dc/elements/1.1/" xmlns:cc="http://creativecommons.org/ns#" xmlns:rdf="http://www.w3.org/1999/02/22-rdf-syntax-ns#">
   <cc:Work>
    <dc:type rdf:resource="http://purl.org/dc/dcmitype/StillImage"/>
    <dc:date>1980-01-01T00:00:00+00:00</dc:date>
    <dc:format>image/svg+xml</dc:format>
    <dc:creator>
     <cc:Agent>
      <dc:title>Matplotlib v3.10.3, https://matplotlib.org/</dc:title>
     </cc:Agent>
    </dc:creator>
   </cc:Work>
  </rdf:RDF>
 </metadata>
 <defs>
  <style type="text/css">*{stroke-linejoin: round; stroke-linecap: butt}</style>
 </defs>
 <g id="figure_1">
  <g id="patch_1">
   <path d="M 0 345.6 
L 460.8 345.6 
L 460.8 0 
L 0 0 
z
" style="fill: #ffffff"/>
  </g>
  <g id="axes_1">
   <g id="patch_2">
    <path d="M 73.01 303.64 
L 450 303.64 
L 450 26.88 
L 73.01 26.88 
z
" style="fill: #ffffff"/>
   </g>
   <g id="matplotlib.axis_1">
    <g id="xtick_1">
     <g id="line2d_1">
      <path d="M 90.145909 303.64 
L 90.145909 26.88 
" clip-path="url(#p1dbb26c097)" style="fill: none; stroke: #b0b0b0; stroke-width: 0.8; stroke-linecap: square"/>
     </g>
     <g id="line2d_2">
      <defs>
       <path id="md76513b2c7" d="M 0 0 
L 0 3.5 
" style="stroke: #000000; stroke-width: 0.8"/>
      </defs>
      <g>
       <use xlink:href="#md76513b2c7" x="90.145909" y="303.64" style="stroke: #000000; stroke-width: 0.8"/>
      </g>
     </g>
     <g id="text_1">
      <!-- 0 -->
      <g transform="translate(86.964659 318.238437) scale(0.1 -0.1)">
       <defs>
        <path id="DejaVuSans-30" d="M 2034 4250 
Q 1547 4250 1301 3770 
Q 1056 3291 1056 2328 
Q 1056 1369 1301 889 
Q 1547 409 2034 409 
Q 2525 409 2770 889 
Q 3016 1369 3016 2328 
Q 3016 3291 2770 3770 
Q 2525 4250 2034 4250 
z
M 2034 4750 
Q 2819 4750 3233 4129 
Q 3647 3509 3647 2328 
Q 3647 1150 3233 529 
Q 2819 -91 2034 -91 
Q 1250 -91 836 529 
Q 422 1150 422 2328 
Q 422 3509 836 4129 
Q 1250 4750 2034 4750 
z
" transform="scale(0.015625)"/>
       </defs>
       <use xlink:href="#DejaVuSans-30"/>
      </g>
     </g>
    </g>
    <g id="xtick_2">
     <g id="line2d_3">
      <path d="M 154.205382 303.64 
L 154.205382 26.88 
" clip-path="url(#p1dbb26c097)" style="fill: none; stroke: #b0b0b0; stroke-width: 0.8; stroke-linecap: square"/>
     </g>
     <g id="line2d_4">
      <g>
       <use xlink:href="#md76513b2c7" x="154.205382" y="303.64" style="stroke: #000000; stroke-width: 0.8"/>
      </g>
     </g>
     <g id="text_2">
      <!-- 20 -->
      <g transform="translate(147.842882 318.238437) scale(0.1 -0.1)">
       <defs>
        <path id="DejaVuSans-32" d="M 1228 531 
L 3431 531 
L 3431 0 
L 469 0 
L 469 531 
Q 828 903 1448 1529 
Q 2069 2156 2228 2338 
Q 2531 2678 2651 2914 
Q 2772 3150 2772 3378 
Q 2772 3750 2511 3984 
Q 2250 4219 1831 4219 
Q 1534 4219 1204 4116 
Q 875 4013 500 3803 
L 500 4441 
Q 881 4594 1212 4672 
Q 1544 4750 1819 4750 
Q 2544 4750 2975 4387 
Q 3406 4025 3406 3419 
Q 3406 3131 3298 2873 
Q 3191 2616 2906 2266 
Q 2828 2175 2409 1742 
Q 1991 1309 1228 531 
z
" transform="scale(0.015625)"/>
       </defs>
       <use xlink:href="#DejaVuSans-32"/>
       <use xlink:href="#DejaVuSans-30" transform="translate(63.623047 0)"/>
      </g>
     </g>
    </g>
    <g id="xtick_3">
     <g id="line2d_5">
      <path d="M 218.264856 303.64 
L 218.264856 26.88 
" clip-path="url(#p1dbb26c097)" style="fill: none; stroke: #b0b0b0; stroke-width: 0.8; stroke-linecap: square"/>
     </g>
     <g id="line2d_6">
      <g>
       <use xlink:href="#md76513b2c7" x="218.264856" y="303.64" style="stroke: #000000; stroke-width: 0.8"/>
      </g>
     </g>
     <g id="text_3">
      <!-- 40 -->
      <g transform="translate(211.902356 318.238437) scale(0.1 -0.1)">
       <defs>
        <path id="DejaVuSans-34" d="M 2419 4116 
L 825 1625 
L 2419 1625 
L 2419 4116 
z
M 2253 4666 
L 3047 4666 
L 3047 1625 
L 3713 1625 
L 3713 1100 
L 3047 1100 
L 3047 0 
L 2419 0 
L 2419 1100 
L 313 1100 
L 313 1709 
L 2253 4666 
z
" transform="scale(0.015625)"/>
       </defs>
       <use xlink:href="#DejaVuSans-34"/>
       <use xlink:href="#DejaVuSans-30" transform="translate(63.623047 0)"/>
      </g>
     </g>
    </g>
    <g id="xtick_4">
     <g id="line2d_7">
      <path d="M 282.324329 303.64 
L 282.324329 26.88 
" clip-path="url(#p1dbb26c097)" style="fill: none; stroke: #b0b0b0; stroke-width: 0.8; stroke-linecap: square"/>
     </g>
     <g id="line2d_8">
      <g>
       <use xlink:href="#md76513b2c7" x="282.324329" y="303.64" style="stroke: #000000; stroke-width: 0.8"/>
      </g>
     </g>
     <g id="text_4">
      <!-- 60 -->
      <g transform="translate(275.961829 318.238437) scale(0.1 -0.1)">
       <defs>
        <path id="DejaVuSans-36" d="M 2113 2584 
Q 1688 2584 1439 2293 
Q 1191 2003 1191 1497 
Q 1191 994 1439 701 
Q 1688 409 2113 409 
Q 2538 409 2786 701 
Q 3034 994 3034 1497 
Q 3034 2003 2786 2293 
Q 2538 2584 2113 2584 
z
M 3366 4563 
L 3366 3988 
Q 3128 4100 2886 4159 
Q 2644 4219 2406 4219 
Q 1781 4219 1451 3797 
Q 1122 3375 1075 2522 
Q 1259 2794 1537 2939 
Q 1816 3084 2150 3084 
Q 2853 3084 3261 2657 
Q 3669 2231 3669 1497 
Q 3669 778 3244 343 
Q 2819 -91 2113 -91 
Q 1303 -91 875 529 
Q 447 1150 447 2328 
Q 447 3434 972 4092 
Q 1497 4750 2381 4750 
Q 2619 4750 2861 4703 
Q 3103 4656 3366 4563 
z
" transform="scale(0.015625)"/>
       </defs>
       <use xlink:href="#DejaVuSans-36"/>
       <use xlink:href="#DejaVuSans-30" transform="translate(63.623047 0)"/>
      </g>
     </g>
    </g>
    <g id="xtick_5">
     <g id="line2d_9">
      <path d="M 346.383802 303.64 
L 346.383802 26.88 
" clip-path="url(#p1dbb26c097)" style="fill: none; stroke: #b0b0b0; stroke-width: 0.8; stroke-linecap: square"/>
     </g>
     <g id="line2d_10">
      <g>
       <use xlink:href="#md76513b2c7" x="346.383802" y="303.64" style="stroke: #000000; stroke-width: 0.8"/>
      </g>
     </g>
     <g id="text_5">
      <!-- 80 -->
      <g transform="translate(340.021302 318.238437) scale(0.1 -0.1)">
       <defs>
        <path id="DejaVuSans-38" d="M 2034 2216 
Q 1584 2216 1326 1975 
Q 1069 1734 1069 1313 
Q 1069 891 1326 650 
Q 1584 409 2034 409 
Q 2484 409 2743 651 
Q 3003 894 3003 1313 
Q 3003 1734 2745 1975 
Q 2488 2216 2034 2216 
z
M 1403 2484 
Q 997 2584 770 2862 
Q 544 3141 544 3541 
Q 544 4100 942 4425 
Q 1341 4750 2034 4750 
Q 2731 4750 3128 4425 
Q 3525 4100 3525 3541 
Q 3525 3141 3298 2862 
Q 3072 2584 2669 2484 
Q 3125 2378 3379 2068 
Q 3634 1759 3634 1313 
Q 3634 634 3220 271 
Q 2806 -91 2034 -91 
Q 1263 -91 848 271 
Q 434 634 434 1313 
Q 434 1759 690 2068 
Q 947 2378 1403 2484 
z
M 1172 3481 
Q 1172 3119 1398 2916 
Q 1625 2713 2034 2713 
Q 2441 2713 2670 2916 
Q 2900 3119 2900 3481 
Q 2900 3844 2670 4047 
Q 2441 4250 2034 4250 
Q 1625 4250 1398 4047 
Q 1172 3844 1172 3481 
z
" transform="scale(0.015625)"/>
       </defs>
       <use xlink:href="#DejaVuSans-38"/>
       <use xlink:href="#DejaVuSans-30" transform="translate(63.623047 0)"/>
      </g>
     </g>
    </g>
    <g id="xtick_6">
     <g id="line2d_11">
      <path d="M 410.443275 303.64 
L 410.443275 26.88 
" clip-path="url(#p1dbb26c097)" style="fill: none; stroke: #b0b0b0; stroke-width: 0.8; stroke-linecap: square"/>
     </g>
     <g id="line2d_12">
      <g>
       <use xlink:href="#md76513b2c7" x="410.443275" y="303.64" style="stroke: #000000; stroke-width: 0.8"/>
      </g>
     </g>
     <g id="text_6">
      <!-- 100 -->
      <g transform="translate(400.899525 318.238437) scale(0.1 -0.1)">
       <defs>
        <path id="DejaVuSans-31" d="M 794 531 
L 1825 531 
L 1825 4091 
L 703 3866 
L 703 4441 
L 1819 4666 
L 2450 4666 
L 2450 531 
L 3481 531 
L 3481 0 
L 794 0 
L 794 531 
z
" transform="scale(0.015625)"/>
       </defs>
       <use xlink:href="#DejaVuSans-31"/>
       <use xlink:href="#DejaVuSans-30" transform="translate(63.623047 0)"/>
       <use xlink:href="#DejaVuSans-30" transform="translate(127.246094 0)"/>
      </g>
     </g>
    </g>
    <g id="text_7">
     <!-- iteration -->
     <g transform="translate(240.382344 331.916562) scale(0.1 -0.1)">
      <defs>
       <path id="DejaVuSans-69" d="M 603 3500 
L 1178 3500 
L 1178 0 
L 603 0 
L 603 3500 
z
M 603 4863 
L 1178 4863 
L 1178 4134 
L 603 4134 
L 603 4863 
z
" transform="scale(0.015625)"/>
       <path id="DejaVuSans-74" d="M 1172 4494 
L 1172 3500 
L 2356 3500 
L 2356 3053 
L 1172 3053 
L 1172 1153 
Q 1172 725 1289 603 
Q 1406 481 1766 481 
L 2356 481 
L 2356 0 
L 1766 0 
Q 1100 0 847 248 
Q 594 497 594 1153 
L 594 3053 
L 172 3053 
L 172 3500 
L 594 3500 
L 594 4494 
L 1172 4494 
z
" transform="scale(0.015625)"/>
       <path id="DejaVuSans-65" d="M 3597 1894 
L 3597 1613 
L 953 1613 
Q 991 1019 1311 708 
Q 1631 397 2203 397 
Q 2534 397 2845 478 
Q 3156 559 3463 722 
L 3463 178 
Q 3153 47 2828 -22 
Q 2503 -91 2169 -91 
Q 1331 -91 842 396 
Q 353 884 353 1716 
Q 353 2575 817 3079 
Q 1281 3584 2069 3584 
Q 2775 3584 3186 3129 
Q 3597 2675 3597 1894 
z
M 3022 2063 
Q 3016 2534 2758 2815 
Q 2500 3097 2075 3097 
Q 1594 3097 1305 2825 
Q 1016 2553 972 2059 
L 3022 2063 
z
" transform="scale(0.015625)"/>
       <path id="DejaVuSans-72" d="M 2631 2963 
Q 2534 3019 2420 3045 
Q 2306 3072 2169 3072 
Q 1681 3072 1420 2755 
Q 1159 2438 1159 1844 
L 1159 0 
L 581 0 
L 581 3500 
L 1159 3500 
L 1159 2956 
Q 1341 3275 1631 3429 
Q 1922 3584 2338 3584 
Q 2397 3584 2469 3576 
Q 2541 3569 2628 3553 
L 2631 2963 
z
" transform="scale(0.015625)"/>
       <path id="DejaVuSans-61" d="M 2194 1759 
Q 1497 1759 1228 1600 
Q 959 1441 959 1056 
Q 959 750 1161 570 
Q 1363 391 1709 391 
Q 2188 391 2477 730 
Q 2766 1069 2766 1631 
L 2766 1759 
L 2194 1759 
z
M 3341 1997 
L 3341 0 
L 2766 0 
L 2766 531 
Q 2569 213 2275 61 
Q 1981 -91 1556 -91 
Q 1019 -91 701 211 
Q 384 513 384 1019 
Q 384 1609 779 1909 
Q 1175 2209 1959 2209 
L 2766 2209 
L 2766 2266 
Q 2766 2663 2505 2880 
Q 2244 3097 1772 3097 
Q 1472 3097 1187 3025 
Q 903 2953 641 2809 
L 641 3341 
Q 956 3463 1253 3523 
Q 1550 3584 1831 3584 
Q 2591 3584 2966 3190 
Q 3341 2797 3341 1997 
z
" transform="scale(0.015625)"/>
       <path id="DejaVuSans-6f" d="M 1959 3097 
Q 1497 3097 1228 2736 
Q 959 2375 959 1747 
Q 959 1119 1226 758 
Q 1494 397 1959 397 
Q 2419 397 2687 759 
Q 2956 1122 2956 1747 
Q 2956 2369 2687 2733 
Q 2419 3097 1959 3097 
z
M 1959 3584 
Q 2709 3584 3137 3096 
Q 3566 2609 3566 1747 
Q 3566 888 3137 398 
Q 2709 -91 1959 -91 
Q 1206 -91 779 398 
Q 353 888 353 1747 
Q 353 2609 779 3096 
Q 1206 3584 1959 3584 
z
" transform="scale(0.015625)"/>
       <path id="DejaVuSans-6e" d="M 3513 2113 
L 3513 0 
L 2938 0 
L 2938 2094 
Q 2938 2591 2744 2837 
Q 2550 3084 2163 3084 
Q 1697 3084 1428 2787 
Q 1159 2491 1159 1978 
L 1159 0 
L 581 0 
L 581 3500 
L 1159 3500 
L 1159 2956 
Q 1366 3272 1645 3428 
Q 1925 3584 2291 3584 
Q 2894 3584 3203 3211 
Q 3513 2838 3513 2113 
z
" transform="scale(0.015625)"/>
      </defs>
      <use xlink:href="#DejaVuSans-69"/>
      <use xlink:href="#DejaVuSans-74" transform="translate(27.783203 0)"/>
      <use xlink:href="#DejaVuSans-65" transform="translate(66.992188 0)"/>
      <use xlink:href="#DejaVuSans-72" transform="translate(128.515625 0)"/>
      <use xlink:href="#DejaVuSans-61" transform="translate(169.628906 0)"/>
      <use xlink:href="#DejaVuSans-74" transform="translate(230.908203 0)"/>
      <use xlink:href="#DejaVuSans-69" transform="translate(270.117188 0)"/>
      <use xlink:href="#DejaVuSans-6f" transform="translate(297.900391 0)"/>
      <use xlink:href="#DejaVuSans-6e" transform="translate(359.082031 0)"/>
     </g>
    </g>
   </g>
   <g id="matplotlib.axis_2">
    <g id="ytick_1">
     <g id="line2d_13">
      <path d="M 73.01 278.831691 
L 450 278.831691 
" clip-path="url(#p1dbb26c097)" style="fill: none; stroke: #b0b0b0; stroke-width: 0.8; stroke-linecap: square"/>
     </g>
     <g id="line2d_14">
      <defs>
       <path id="m4c58629fab" d="M 0 0 
L -3.5 0 
" style="stroke: #000000; stroke-width: 0.8"/>
      </defs>
      <g>
       <use xlink:href="#m4c58629fab" x="73.01" y="278.831691" style="stroke: #000000; stroke-width: 0.8"/>
      </g>
     </g>
     <g id="text_8">
      <!-- 0.01450 -->
      <g transform="translate(24.656875 282.63091) scale(0.1 -0.1)">
       <defs>
        <path id="DejaVuSans-2e" d="M 684 794 
L 1344 794 
L 1344 0 
L 684 0 
L 684 794 
z
" transform="scale(0.015625)"/>
        <path id="DejaVuSans-35" d="M 691 4666 
L 3169 4666 
L 3169 4134 
L 1269 4134 
L 1269 2991 
Q 1406 3038 1543 3061 
Q 1681 3084 1819 3084 
Q 2600 3084 3056 2656 
Q 3513 2228 3513 1497 
Q 3513 744 3044 326 
Q 2575 -91 1722 -91 
Q 1428 -91 1123 -41 
Q 819 9 494 109 
L 494 744 
Q 775 591 1075 516 
Q 1375 441 1709 441 
Q 2250 441 2565 725 
Q 2881 1009 2881 1497 
Q 2881 1984 2565 2268 
Q 2250 2553 1709 2553 
Q 1456 2553 1204 2497 
Q 953 2441 691 2322 
L 691 4666 
z
" transform="scale(0.015625)"/>
       </defs>
       <use xlink:href="#DejaVuSans-30"/>
       <use xlink:href="#DejaVuSans-2e" transform="translate(63.623047 0)"/>
       <use xlink:href="#DejaVuSans-30" transform="translate(95.410156 0)"/>
       <use xlink:href="#DejaVuSans-31" transform="translate(159.033203 0)"/>
       <use xlink:href="#DejaVuSans-34" transform="translate(222.65625 0)"/>
       <use xlink:href="#DejaVuSans-35" transform="translate(286.279297 0)"/>
       <use xlink:href="#DejaVuSans-30" transform="translate(349.902344 0)"/>
      </g>
     </g>
    </g>
    <g id="ytick_2">
     <g id="line2d_15">
      <path d="M 73.01 240.483527 
L 450 240.483527 
" clip-path="url(#p1dbb26c097)" style="fill: none; stroke: #b0b0b0; stroke-width: 0.8; stroke-linecap: square"/>
     </g>
     <g id="line2d_16">
      <g>
       <use xlink:href="#m4c58629fab" x="73.01" y="240.483527" style="stroke: #000000; stroke-width: 0.8"/>
      </g>
     </g>
     <g id="text_9">
      <!-- 0.01475 -->
      <g transform="translate(24.656875 244.282746) scale(0.1 -0.1)">
       <defs>
        <path id="DejaVuSans-37" d="M 525 4666 
L 3525 4666 
L 3525 4397 
L 1831 0 
L 1172 0 
L 2766 4134 
L 525 4134 
L 525 4666 
z
" transform="scale(0.015625)"/>
       </defs>
       <use xlink:href="#DejaVuSans-30"/>
       <use xlink:href="#DejaVuSans-2e" transform="translate(63.623047 0)"/>
       <use xlink:href="#DejaVuSans-30" transform="translate(95.410156 0)"/>
       <use xlink:href="#DejaVuSans-31" transform="translate(159.033203 0)"/>
       <use xlink:href="#DejaVuSans-34" transform="translate(222.65625 0)"/>
       <use xlink:href="#DejaVuSans-37" transform="translate(286.279297 0)"/>
       <use xlink:href="#DejaVuSans-35" transform="translate(349.902344 0)"/>
      </g>
     </g>
    </g>
    <g id="ytick_3">
     <g id="line2d_17">
      <path d="M 73.01 202.135364 
L 450 202.135364 
" clip-path="url(#p1dbb26c097)" style="fill: none; stroke: #b0b0b0; stroke-width: 0.8; stroke-linecap: square"/>
     </g>
     <g id="line2d_18">
      <g>
       <use xlink:href="#m4c58629fab" x="73.01" y="202.135364" style="stroke: #000000; stroke-width: 0.8"/>
      </g>
     </g>
     <g id="text_10">
      <!-- 0.01500 -->
      <g transform="translate(24.656875 205.934583) scale(0.1 -0.1)">
       <use xlink:href="#DejaVuSans-30"/>
       <use xlink:href="#DejaVuSans-2e" transform="translate(63.623047 0)"/>
       <use xlink:href="#DejaVuSans-30" transform="translate(95.410156 0)"/>
       <use xlink:href="#DejaVuSans-31" transform="translate(159.033203 0)"/>
       <use xlink:href="#DejaVuSans-35" transform="translate(222.65625 0)"/>
       <use xlink:href="#DejaVuSans-30" transform="translate(286.279297 0)"/>
       <use xlink:href="#DejaVuSans-30" transform="translate(349.902344 0)"/>
      </g>
     </g>
    </g>
    <g id="ytick_4">
     <g id="line2d_19">
      <path d="M 73.01 163.7872 
L 450 163.7872 
" clip-path="url(#p1dbb26c097)" style="fill: none; stroke: #b0b0b0; stroke-width: 0.8; stroke-linecap: square"/>
     </g>
     <g id="line2d_20">
      <g>
       <use xlink:href="#m4c58629fab" x="73.01" y="163.7872" style="stroke: #000000; stroke-width: 0.8"/>
      </g>
     </g>
     <g id="text_11">
      <!-- 0.01525 -->
      <g transform="translate(24.656875 167.586419) scale(0.1 -0.1)">
       <use xlink:href="#DejaVuSans-30"/>
       <use xlink:href="#DejaVuSans-2e" transform="translate(63.623047 0)"/>
       <use xlink:href="#DejaVuSans-30" transform="translate(95.410156 0)"/>
       <use xlink:href="#DejaVuSans-31" transform="translate(159.033203 0)"/>
       <use xlink:href="#DejaVuSans-35" transform="translate(222.65625 0)"/>
       <use xlink:href="#DejaVuSans-32" transform="translate(286.279297 0)"/>
       <use xlink:href="#DejaVuSans-35" transform="translate(349.902344 0)"/>
      </g>
     </g>
    </g>
    <g id="ytick_5">
     <g id="line2d_21">
      <path d="M 73.01 125.439037 
L 450 125.439037 
" clip-path="url(#p1dbb26c097)" style="fill: none; stroke: #b0b0b0; stroke-width: 0.8; stroke-linecap: square"/>
     </g>
     <g id="line2d_22">
      <g>
       <use xlink:href="#m4c58629fab" x="73.01" y="125.439037" style="stroke: #000000; stroke-width: 0.8"/>
      </g>
     </g>
     <g id="text_12">
      <!-- 0.01550 -->
      <g transform="translate(24.656875 129.238256) scale(0.1 -0.1)">
       <use xlink:href="#DejaVuSans-30"/>
       <use xlink:href="#DejaVuSans-2e" transform="translate(63.623047 0)"/>
       <use xlink:href="#DejaVuSans-30" transform="translate(95.410156 0)"/>
       <use xlink:href="#DejaVuSans-31" transform="translate(159.033203 0)"/>
       <use xlink:href="#DejaVuSans-35" transform="translate(222.65625 0)"/>
       <use xlink:href="#DejaVuSans-35" transform="translate(286.279297 0)"/>
       <use xlink:href="#DejaVuSans-30" transform="translate(349.902344 0)"/>
      </g>
     </g>
    </g>
    <g id="ytick_6">
     <g id="line2d_23">
      <path d="M 73.01 87.090873 
L 450 87.090873 
" clip-path="url(#p1dbb26c097)" style="fill: none; stroke: #b0b0b0; stroke-width: 0.8; stroke-linecap: square"/>
     </g>
     <g id="line2d_24">
      <g>
       <use xlink:href="#m4c58629fab" x="73.01" y="87.090873" style="stroke: #000000; stroke-width: 0.8"/>
      </g>
     </g>
     <g id="text_13">
      <!-- 0.01575 -->
      <g transform="translate(24.656875 90.890092) scale(0.1 -0.1)">
       <use xlink:href="#DejaVuSans-30"/>
       <use xlink:href="#DejaVuSans-2e" transform="translate(63.623047 0)"/>
       <use xlink:href="#DejaVuSans-30" transform="translate(95.410156 0)"/>
       <use xlink:href="#DejaVuSans-31" transform="translate(159.033203 0)"/>
       <use xlink:href="#DejaVuSans-35" transform="translate(222.65625 0)"/>
       <use xlink:href="#DejaVuSans-37" transform="translate(286.279297 0)"/>
       <use xlink:href="#DejaVuSans-35" transform="translate(349.902344 0)"/>
      </g>
     </g>
    </g>
    <g id="ytick_7">
     <g id="line2d_25">
      <path d="M 73.01 48.74271 
L 450 48.74271 
" clip-path="url(#p1dbb26c097)" style="fill: none; stroke: #b0b0b0; stroke-width: 0.8; stroke-linecap: square"/>
     </g>
     <g id="line2d_26">
      <g>
       <use xlink:href="#m4c58629fab" x="73.01" y="48.74271" style="stroke: #000000; stroke-width: 0.8"/>
      </g>
     </g>
     <g id="text_14">
      <!-- 0.01600 -->
      <g transform="translate(24.656875 52.541929) scale(0.1 -0.1)">
       <use xlink:href="#DejaVuSans-30"/>
       <use xlink:href="#DejaVuSans-2e" transform="translate(63.623047 0)"/>
       <use xlink:href="#DejaVuSans-30" transform="translate(95.410156 0)"/>
       <use xlink:href="#DejaVuSans-31" transform="translate(159.033203 0)"/>
       <use xlink:href="#DejaVuSans-36" transform="translate(222.65625 0)"/>
       <use xlink:href="#DejaVuSans-30" transform="translate(286.279297 0)"/>
       <use xlink:href="#DejaVuSans-30" transform="translate(349.902344 0)"/>
      </g>
     </g>
    </g>
    <g id="text_15">
     <!-- RPE(RMSE) -->
     <g transform="translate(18.577188 192.931875) rotate(-90) scale(0.1 -0.1)">
      <defs>
       <path id="DejaVuSans-52" d="M 2841 2188 
Q 3044 2119 3236 1894 
Q 3428 1669 3622 1275 
L 4263 0 
L 3584 0 
L 2988 1197 
Q 2756 1666 2539 1819 
Q 2322 1972 1947 1972 
L 1259 1972 
L 1259 0 
L 628 0 
L 628 4666 
L 2053 4666 
Q 2853 4666 3247 4331 
Q 3641 3997 3641 3322 
Q 3641 2881 3436 2590 
Q 3231 2300 2841 2188 
z
M 1259 4147 
L 1259 2491 
L 2053 2491 
Q 2509 2491 2742 2702 
Q 2975 2913 2975 3322 
Q 2975 3731 2742 3939 
Q 2509 4147 2053 4147 
L 1259 4147 
z
" transform="scale(0.015625)"/>
       <path id="DejaVuSans-50" d="M 1259 4147 
L 1259 2394 
L 2053 2394 
Q 2494 2394 2734 2622 
Q 2975 2850 2975 3272 
Q 2975 3691 2734 3919 
Q 2494 4147 2053 4147 
L 1259 4147 
z
M 628 4666 
L 2053 4666 
Q 2838 4666 3239 4311 
Q 3641 3956 3641 3272 
Q 3641 2581 3239 2228 
Q 2838 1875 2053 1875 
L 1259 1875 
L 1259 0 
L 628 0 
L 628 4666 
z
" transform="scale(0.015625)"/>
       <path id="DejaVuSans-45" d="M 628 4666 
L 3578 4666 
L 3578 4134 
L 1259 4134 
L 1259 2753 
L 3481 2753 
L 3481 2222 
L 1259 2222 
L 1259 531 
L 3634 531 
L 3634 0 
L 628 0 
L 628 4666 
z
" transform="scale(0.015625)"/>
       <path id="DejaVuSans-28" d="M 1984 4856 
Q 1566 4138 1362 3434 
Q 1159 2731 1159 2009 
Q 1159 1288 1364 580 
Q 1569 -128 1984 -844 
L 1484 -844 
Q 1016 -109 783 600 
Q 550 1309 550 2009 
Q 550 2706 781 3412 
Q 1013 4119 1484 4856 
L 1984 4856 
z
" transform="scale(0.015625)"/>
       <path id="DejaVuSans-4d" d="M 628 4666 
L 1569 4666 
L 2759 1491 
L 3956 4666 
L 4897 4666 
L 4897 0 
L 4281 0 
L 4281 4097 
L 3078 897 
L 2444 897 
L 1241 4097 
L 1241 0 
L 628 0 
L 628 4666 
z
" transform="scale(0.015625)"/>
       <path id="DejaVuSans-53" d="M 3425 4513 
L 3425 3897 
Q 3066 4069 2747 4153 
Q 2428 4238 2131 4238 
Q 1616 4238 1336 4038 
Q 1056 3838 1056 3469 
Q 1056 3159 1242 3001 
Q 1428 2844 1947 2747 
L 2328 2669 
Q 3034 2534 3370 2195 
Q 3706 1856 3706 1288 
Q 3706 609 3251 259 
Q 2797 -91 1919 -91 
Q 1588 -91 1214 -16 
Q 841 59 441 206 
L 441 856 
Q 825 641 1194 531 
Q 1563 422 1919 422 
Q 2459 422 2753 634 
Q 3047 847 3047 1241 
Q 3047 1584 2836 1778 
Q 2625 1972 2144 2069 
L 1759 2144 
Q 1053 2284 737 2584 
Q 422 2884 422 3419 
Q 422 4038 858 4394 
Q 1294 4750 2059 4750 
Q 2388 4750 2728 4690 
Q 3069 4631 3425 4513 
z
" transform="scale(0.015625)"/>
       <path id="DejaVuSans-29" d="M 513 4856 
L 1013 4856 
Q 1481 4119 1714 3412 
Q 1947 2706 1947 2009 
Q 1947 1309 1714 600 
Q 1481 -109 1013 -844 
L 513 -844 
Q 928 -128 1133 580 
Q 1338 1288 1338 2009 
Q 1338 2731 1133 3434 
Q 928 4138 513 4856 
z
" transform="scale(0.015625)"/>
      </defs>
      <use xlink:href="#DejaVuSans-52"/>
      <use xlink:href="#DejaVuSans-50" transform="translate(69.482422 0)"/>
      <use xlink:href="#DejaVuSans-45" transform="translate(129.785156 0)"/>
      <use xlink:href="#DejaVuSans-28" transform="translate(192.96875 0)"/>
      <use xlink:href="#DejaVuSans-52" transform="translate(231.982422 0)"/>
      <use xlink:href="#DejaVuSans-4d" transform="translate(301.464844 0)"/>
      <use xlink:href="#DejaVuSans-53" transform="translate(387.744141 0)"/>
      <use xlink:href="#DejaVuSans-45" transform="translate(451.220703 0)"/>
      <use xlink:href="#DejaVuSans-29" transform="translate(514.404297 0)"/>
     </g>
    </g>
   </g>
   <g id="line2d_27">
    <path d="M 90.145909 95.577782 
L 93.348883 86.507675 
L 96.551856 39.46 
L 99.75483 107.51848 
L 102.957804 118.232957 
L 106.160777 71.165801 
L 109.363751 89.185757 
L 112.566725 52.167814 
L 115.769698 85.914045 
L 118.972672 101.130903 
L 122.175646 114.868596 
L 125.378619 111.220151 
L 128.581593 110.515312 
L 131.784567 105.64893 
L 134.98754 115.571287 
L 138.190514 154.986834 
L 141.393488 179.371741 
L 144.596461 172.891821 
L 147.799435 176.304808 
L 151.002409 175.699214 
L 154.205382 194.069211 
L 157.408356 173.022512 
L 160.61133 164.171756 
L 163.814303 188.394603 
L 167.017277 213.433347 
L 170.220251 202.448899 
L 173.423224 209.865433 
L 176.626198 228.010864 
L 179.829172 224.639293 
L 183.032145 218.807765 
L 186.235119 238.725034 
L 189.438093 216.383241 
L 192.641066 245.822512 
L 195.84404 240.763162 
L 199.047014 249.679724 
L 202.249987 263.016371 
L 205.452961 270.65847 
L 208.655935 248.066954 
L 211.858908 250.276115 
L 215.061882 253.55588 
L 218.264856 244.465447 
L 221.467829 262.768105 
L 224.670803 261.181105 
L 227.873777 279.326076 
L 231.07675 271.417457 
L 234.279724 266.673022 
L 237.482698 275.051943 
L 240.685671 272.282745 
L 243.888645 276.125078 
L 247.091619 275.530834 
L 250.294592 281.567756 
L 253.497566 280.177405 
L 256.70054 269.893041 
L 259.903513 278.010734 
L 263.106487 271.55321 
L 266.30946 277.067369 
L 269.512434 275.320073 
L 272.715408 271.74403 
L 275.918381 271.514861 
L 279.121355 284.725497 
L 282.324329 268.573404 
L 285.527302 267.403018 
L 288.730276 266.383264 
L 291.93325 277.418024 
L 295.136223 280.884852 
L 298.339197 276.997575 
L 301.542171 279.324542 
L 304.745144 280.301653 
L 307.948118 285.105144 
L 311.151092 286.493807 
L 314.354065 280.323051 
L 317.557039 288.488679 
L 320.760013 280.765359 
L 323.962986 269.065641 
L 327.16596 269.065641 
L 330.368934 280.765359 
L 333.571907 291.06 
L 336.774881 282.434117 
L 339.977855 291.06 
L 343.180828 276.960301 
L 346.383802 280.765359 
L 349.586776 269.065641 
L 352.789749 269.065641 
L 355.992723 280.765359 
L 359.195697 269.065641 
L 362.39867 280.043033 
L 365.601644 269.065641 
L 368.804618 269.065641 
L 372.007591 269.065641 
L 375.210565 280.043033 
L 378.413539 280.765359 
L 381.616512 269.065641 
L 384.819486 280.765359 
L 388.02246 269.065641 
L 391.225433 280.765359 
L 394.428407 280.043033 
L 397.631381 280.765359 
L 400.834354 282.434117 
L 404.037328 282.434117 
L 407.240302 280.765359 
L 410.443275 269.065641 
L 413.646249 269.065641 
L 416.849223 269.065641 
L 420.052196 269.065641 
L 423.25517 269.065641 
L 426.458144 269.065641 
L 429.661117 269.065641 
L 432.864091 280.043033 
" clip-path="url(#p1dbb26c097)" style="fill: none; stroke: #1f77b4; stroke-width: 1.5; stroke-linecap: square"/>
    <defs>
     <path id="mff7faf97fb" d="M 0 3 
C 0.795609 3 1.55874 2.683901 2.12132 2.12132 
C 2.683901 1.55874 3 0.795609 3 0 
C 3 -0.795609 2.683901 -1.55874 2.12132 -2.12132 
C 1.55874 -2.683901 0.795609 -3 0 -3 
C -0.795609 -3 -1.55874 -2.683901 -2.12132 -2.12132 
C -2.683901 -1.55874 -3 -0.795609 -3 0 
C -3 0.795609 -2.683901 1.55874 -2.12132 2.12132 
C -1.55874 2.683901 -0.795609 3 0 3 
z
" style="stroke: #1f77b4"/>
    </defs>
    <g clip-path="url(#p1dbb26c097)">
     <use xlink:href="#mff7faf97fb" x="90.145909" y="95.577782" style="fill: #1f77b4; stroke: #1f77b4"/>
     <use xlink:href="#mff7faf97fb" x="93.348883" y="86.507675" style="fill: #1f77b4; stroke: #1f77b4"/>
     <use xlink:href="#mff7faf97fb" x="96.551856" y="39.46" style="fill: #1f77b4; stroke: #1f77b4"/>
     <use xlink:href="#mff7faf97fb" x="99.75483" y="107.51848" style="fill: #1f77b4; stroke: #1f77b4"/>
     <use xlink:href="#mff7faf97fb" x="102.957804" y="118.232957" style="fill: #1f77b4; stroke: #1f77b4"/>
     <use xlink:href="#mff7faf97fb" x="106.160777" y="71.165801" style="fill: #1f77b4; stroke: #1f77b4"/>
     <use xlink:href="#mff7faf97fb" x="109.363751" y="89.185757" style="fill: #1f77b4; stroke: #1f77b4"/>
     <use xlink:href="#mff7faf97fb" x="112.566725" y="52.167814" style="fill: #1f77b4; stroke: #1f77b4"/>
     <use xlink:href="#mff7faf97fb" x="115.769698" y="85.914045" style="fill: #1f77b4; stroke: #1f77b4"/>
     <use xlink:href="#mff7faf97fb" x="118.972672" y="101.130903" style="fill: #1f77b4; stroke: #1f77b4"/>
     <use xlink:href="#mff7faf97fb" x="122.175646" y="114.868596" style="fill: #1f77b4; stroke: #1f77b4"/>
     <use xlink:href="#mff7faf97fb" x="125.378619" y="111.220151" style="fill: #1f77b4; stroke: #1f77b4"/>
     <use xlink:href="#mff7faf97fb" x="128.581593" y="110.515312" style="fill: #1f77b4; stroke: #1f77b4"/>
     <use xlink:href="#mff7faf97fb" x="131.784567" y="105.64893" style="fill: #1f77b4; stroke: #1f77b4"/>
     <use xlink:href="#mff7faf97fb" x="134.98754" y="115.571287" style="fill: #1f77b4; stroke: #1f77b4"/>
     <use xlink:href="#mff7faf97fb" x="138.190514" y="154.986834" style="fill: #1f77b4; stroke: #1f77b4"/>
     <use xlink:href="#mff7faf97fb" x="141.393488" y="179.371741" style="fill: #1f77b4; stroke: #1f77b4"/>
     <use xlink:href="#mff7faf97fb" x="144.596461" y="172.891821" style="fill: #1f77b4; stroke: #1f77b4"/>
     <use xlink:href="#mff7faf97fb" x="147.799435" y="176.304808" style="fill: #1f77b4; stroke: #1f77b4"/>
     <use xlink:href="#mff7faf97fb" x="151.002409" y="175.699214" style="fill: #1f77b4; stroke: #1f77b4"/>
     <use xlink:href="#mff7faf97fb" x="154.205382" y="194.069211" style="fill: #1f77b4; stroke: #1f77b4"/>
     <use xlink:href="#mff7faf97fb" x="157.408356" y="173.022512" style="fill: #1f77b4; stroke: #1f77b4"/>
     <use xlink:href="#mff7faf97fb" x="160.61133" y="164.171756" style="fill: #1f77b4; stroke: #1f77b4"/>
     <use xlink:href="#mff7faf97fb" x="163.814303" y="188.394603" style="fill: #1f77b4; stroke: #1f77b4"/>
     <use xlink:href="#mff7faf97fb" x="167.017277" y="213.433347" style="fill: #1f77b4; stroke: #1f77b4"/>
     <use xlink:href="#mff7faf97fb" x="170.220251" y="202.448899" style="fill: #1f77b4; stroke: #1f77b4"/>
     <use xlink:href="#mff7faf97fb" x="173.423224" y="209.865433" style="fill: #1f77b4; stroke: #1f77b4"/>
     <use xlink:href="#mff7faf97fb" x="176.626198" y="228.010864" style="fill: #1f77b4; stroke: #1f77b4"/>
     <use xlink:href="#mff7faf97fb" x="179.829172" y="224.639293" style="fill: #1f77b4; stroke: #1f77b4"/>
     <use xlink:href="#mff7faf97fb" x="183.032145" y="218.807765" style="fill: #1f77b4; stroke: #1f77b4"/>
     <use xlink:href="#mff7faf97fb" x="186.235119" y="238.725034" style="fill: #1f77b4; stroke: #1f77b4"/>
     <use xlink:href="#mff7faf97fb" x="189.438093" y="216.383241" style="fill: #1f77b4; stroke: #1f77b4"/>
     <use xlink:href="#mff7faf97fb" x="192.641066" y="245.822512" style="fill: #1f77b4; stroke: #1f77b4"/>
     <use xlink:href="#mff7faf97fb" x="195.84404" y="240.763162" style="fill: #1f77b4; stroke: #1f77b4"/>
     <use xlink:href="#mff7faf97fb" x="199.047014" y="249.679724" style="fill: #1f77b4; stroke: #1f77b4"/>
     <use xlink:href="#mff7faf97fb" x="202.249987" y="263.016371" style="fill: #1f77b4; stroke: #1f77b4"/>
     <use xlink:href="#mff7faf97fb" x="205.452961" y="270.65847" style="fill: #1f77b4; stroke: #1f77b4"/>
     <use xlink:href="#mff7faf97fb" x="208.655935" y="248.066954" style="fill: #1f77b4; stroke: #1f77b4"/>
     <use xlink:href="#mff7faf97fb" x="211.858908" y="250.276115" style="fill: #1f77b4; stroke: #1f77b4"/>
     <use xlink:href="#mff7faf97fb" x="215.061882" y="253.55588" style="fill: #1f77b4; stroke: #1f77b4"/>
     <use xlink:href="#mff7faf97fb" x="218.264856" y="244.465447" style="fill: #1f77b4; stroke: #1f77b4"/>
     <use xlink:href="#mff7faf97fb" x="221.467829" y="262.768105" style="fill: #1f77b4; stroke: #1f77b4"/>
     <use xlink:href="#mff7faf97fb" x="224.670803" y="261.181105" style="fill: #1f77b4; stroke: #1f77b4"/>
     <use xlink:href="#mff7faf97fb" x="227.873777" y="279.326076" style="fill: #1f77b4; stroke: #1f77b4"/>
     <use xlink:href="#mff7faf97fb" x="231.07675" y="271.417457" style="fill: #1f77b4; stroke: #1f77b4"/>
     <use xlink:href="#mff7faf97fb" x="234.279724" y="266.673022" style="fill: #1f77b4; stroke: #1f77b4"/>
     <use xlink:href="#mff7faf97fb" x="237.482698" y="275.051943" style="fill: #1f77b4; stroke: #1f77b4"/>
     <use xlink:href="#mff7faf97fb" x="240.685671" y="272.282745" style="fill: #1f77b4; stroke: #1f77b4"/>
     <use xlink:href="#mff7faf97fb" x="243.888645" y="276.125078" style="fill: #1f77b4; stroke: #1f77b4"/>
     <use xlink:href="#mff7faf97fb" x="247.091619" y="275.530834" style="fill: #1f77b4; stroke: #1f77b4"/>
     <use xlink:href="#mff7faf97fb" x="250.294592" y="281.567756" style="fill: #1f77b4; stroke: #1f77b4"/>
     <use xlink:href="#mff7faf97fb" x="253.497566" y="280.177405" style="fill: #1f77b4; stroke: #1f77b4"/>
     <use xlink:href="#mff7faf97fb" x="256.70054" y="269.893041" style="fill: #1f77b4; stroke: #1f77b4"/>
     <use xlink:href="#mff7faf97fb" x="259.903513" y="278.010734" style="fill: #1f77b4; stroke: #1f77b4"/>
     <use xlink:href="#mff7faf97fb" x="263.106487" y="271.55321" style="fill: #1f77b4; stroke: #1f77b4"/>
     <use xlink:href="#mff7faf97fb" x="266.30946" y="277.067369" style="fill: #1f77b4; stroke: #1f77b4"/>
     <use xlink:href="#mff7faf97fb" x="269.512434" y="275.320073" style="fill: #1f77b4; stroke: #1f77b4"/>
     <use xlink:href="#mff7faf97fb" x="272.715408" y="271.74403" style="fill: #1f77b4; stroke: #1f77b4"/>
     <use xlink:href="#mff7faf97fb" x="275.918381" y="271.514861" style="fill: #1f77b4; stroke: #1f77b4"/>
     <use xlink:href="#mff7faf97fb" x="279.121355" y="284.725497" style="fill: #1f77b4; stroke: #1f77b4"/>
     <use xlink:href="#mff7faf97fb" x="282.324329" y="268.573404" style="fill: #1f77b4; stroke: #1f77b4"/>
     <use xlink:href="#mff7faf97fb" x="285.527302" y="267.403018" style="fill: #1f77b4; stroke: #1f77b4"/>
     <use xlink:href="#mff7faf97fb" x="288.730276" y="266.383264" style="fill: #1f77b4; stroke: #1f77b4"/>
     <use xlink:href="#mff7faf97fb" x="291.93325" y="277.418024" style="fill: #1f77b4; stroke: #1f77b4"/>
     <use xlink:href="#mff7faf97fb" x="295.136223" y="280.884852" style="fill: #1f77b4; stroke: #1f77b4"/>
     <use xlink:href="#mff7faf97fb" x="298.339197" y="276.997575" style="fill: #1f77b4; stroke: #1f77b4"/>
     <use xlink:href="#mff7faf97fb" x="301.542171" y="279.324542" style="fill: #1f77b4; stroke: #1f77b4"/>
     <use xlink:href="#mff7faf97fb" x="304.745144" y="280.301653" style="fill: #1f77b4; stroke: #1f77b4"/>
     <use xlink:href="#mff7faf97fb" x="307.948118" y="285.105144" style="fill: #1f77b4; stroke: #1f77b4"/>
     <use xlink:href="#mff7faf97fb" x="311.151092" y="286.493807" style="fill: #1f77b4; stroke: #1f77b4"/>
     <use xlink:href="#mff7faf97fb" x="314.354065" y="280.323051" style="fill: #1f77b4; stroke: #1f77b4"/>
     <use xlink:href="#mff7faf97fb" x="317.557039" y="288.488679" style="fill: #1f77b4; stroke: #1f77b4"/>
     <use xlink:href="#mff7faf97fb" x="320.760013" y="280.765359" style="fill: #1f77b4; stroke: #1f77b4"/>
     <use xlink:href="#mff7faf97fb" x="323.962986" y="269.065641" style="fill: #1f77b4; stroke: #1f77b4"/>
     <use xlink:href="#mff7faf97fb" x="327.16596" y="269.065641" style="fill: #1f77b4; stroke: #1f77b4"/>
     <use xlink:href="#mff7faf97fb" x="330.368934" y="280.765359" style="fill: #1f77b4; stroke: #1f77b4"/>
     <use xlink:href="#mff7faf97fb" x="333.571907" y="291.06" style="fill: #1f77b4; stroke: #1f77b4"/>
     <use xlink:href="#mff7faf97fb" x="336.774881" y="282.434117" style="fill: #1f77b4; stroke: #1f77b4"/>
     <use xlink:href="#mff7faf97fb" x="339.977855" y="291.06" style="fill: #1f77b4; stroke: #1f77b4"/>
     <use xlink:href="#mff7faf97fb" x="343.180828" y="276.960301" style="fill: #1f77b4; stroke: #1f77b4"/>
     <use xlink:href="#mff7faf97fb" x="346.383802" y="280.765359" style="fill: #1f77b4; stroke: #1f77b4"/>
     <use xlink:href="#mff7faf97fb" x="349.586776" y="269.065641" style="fill: #1f77b4; stroke: #1f77b4"/>
     <use xlink:href="#mff7faf97fb" x="352.789749" y="269.065641" style="fill: #1f77b4; stroke: #1f77b4"/>
     <use xlink:href="#mff7faf97fb" x="355.992723" y="280.765359" style="fill: #1f77b4; stroke: #1f77b4"/>
     <use xlink:href="#mff7faf97fb" x="359.195697" y="269.065641" style="fill: #1f77b4; stroke: #1f77b4"/>
     <use xlink:href="#mff7faf97fb" x="362.39867" y="280.043033" style="fill: #1f77b4; stroke: #1f77b4"/>
     <use xlink:href="#mff7faf97fb" x="365.601644" y="269.065641" style="fill: #1f77b4; stroke: #1f77b4"/>
     <use xlink:href="#mff7faf97fb" x="368.804618" y="269.065641" style="fill: #1f77b4; stroke: #1f77b4"/>
     <use xlink:href="#mff7faf97fb" x="372.007591" y="269.065641" style="fill: #1f77b4; stroke: #1f77b4"/>
     <use xlink:href="#mff7faf97fb" x="375.210565" y="280.043033" style="fill: #1f77b4; stroke: #1f77b4"/>
     <use xlink:href="#mff7faf97fb" x="378.413539" y="280.765359" style="fill: #1f77b4; stroke: #1f77b4"/>
     <use xlink:href="#mff7faf97fb" x="381.616512" y="269.065641" style="fill: #1f77b4; stroke: #1f77b4"/>
     <use xlink:href="#mff7faf97fb" x="384.819486" y="280.765359" style="fill: #1f77b4; stroke: #1f77b4"/>
     <use xlink:href="#mff7faf97fb" x="388.02246" y="269.065641" style="fill: #1f77b4; stroke: #1f77b4"/>
     <use xlink:href="#mff7faf97fb" x="391.225433" y="280.765359" style="fill: #1f77b4; stroke: #1f77b4"/>
     <use xlink:href="#mff7faf97fb" x="394.428407" y="280.043033" style="fill: #1f77b4; stroke: #1f77b4"/>
     <use xlink:href="#mff7faf97fb" x="397.631381" y="280.765359" style="fill: #1f77b4; stroke: #1f77b4"/>
     <use xlink:href="#mff7faf97fb" x="400.834354" y="282.434117" style="fill: #1f77b4; stroke: #1f77b4"/>
     <use xlink:href="#mff7faf97fb" x="404.037328" y="282.434117" style="fill: #1f77b4; stroke: #1f77b4"/>
     <use xlink:href="#mff7faf97fb" x="407.240302" y="280.765359" style="fill: #1f77b4; stroke: #1f77b4"/>
     <use xlink:href="#mff7faf97fb" x="410.443275" y="269.065641" style="fill: #1f77b4; stroke: #1f77b4"/>
     <use xlink:href="#mff7faf97fb" x="413.646249" y="269.065641" style="fill: #1f77b4; stroke: #1f77b4"/>
     <use xlink:href="#mff7faf97fb" x="416.849223" y="269.065641" style="fill: #1f77b4; stroke: #1f77b4"/>
     <use xlink:href="#mff7faf97fb" x="420.052196" y="269.065641" style="fill: #1f77b4; stroke: #1f77b4"/>
     <use xlink:href="#mff7faf97fb" x="423.25517" y="269.065641" style="fill: #1f77b4; stroke: #1f77b4"/>
     <use xlink:href="#mff7faf97fb" x="426.458144" y="269.065641" style="fill: #1f77b4; stroke: #1f77b4"/>
     <use xlink:href="#mff7faf97fb" x="429.661117" y="269.065641" style="fill: #1f77b4; stroke: #1f77b4"/>
     <use xlink:href="#mff7faf97fb" x="432.864091" y="280.043033" style="fill: #1f77b4; stroke: #1f77b4"/>
    </g>
   </g>
   <g id="line2d_28">
    <path d="M 122.175646 303.64 
L 122.175646 26.88 
" clip-path="url(#p1dbb26c097)" style="fill: none; stroke-dasharray: 5.55,2.4; stroke-dashoffset: 0; stroke: #1f77b4; stroke-width: 1.5"/>
   </g>
   <g id="line2d_29">
    <path d="M 154.205382 303.64 
L 154.205382 26.88 
" clip-path="url(#p1dbb26c097)" style="fill: none; stroke-dasharray: 5.55,2.4; stroke-dashoffset: 0; stroke: #1f77b4; stroke-width: 1.5"/>
   </g>
   <g id="line2d_30">
    <path d="M 186.235119 303.64 
L 186.235119 26.88 
" clip-path="url(#p1dbb26c097)" style="fill: none; stroke-dasharray: 5.55,2.4; stroke-dashoffset: 0; stroke: #1f77b4; stroke-width: 1.5"/>
   </g>
   <g id="line2d_31">
    <path d="M 218.264856 303.64 
L 218.264856 26.88 
" clip-path="url(#p1dbb26c097)" style="fill: none; stroke-dasharray: 5.55,2.4; stroke-dashoffset: 0; stroke: #1f77b4; stroke-width: 1.5"/>
   </g>
   <g id="line2d_32">
    <path d="M 250.294592 303.64 
L 250.294592 26.88 
" clip-path="url(#p1dbb26c097)" style="fill: none; stroke-dasharray: 5.55,2.4; stroke-dashoffset: 0; stroke: #1f77b4; stroke-width: 1.5"/>
   </g>
   <g id="line2d_33">
    <path d="M 282.324329 303.64 
L 282.324329 26.88 
" clip-path="url(#p1dbb26c097)" style="fill: none; stroke-dasharray: 5.55,2.4; stroke-dashoffset: 0; stroke: #1f77b4; stroke-width: 1.5"/>
   </g>
   <g id="line2d_34">
    <path d="M 314.354065 303.64 
L 314.354065 26.88 
" clip-path="url(#p1dbb26c097)" style="fill: none; stroke-dasharray: 5.55,2.4; stroke-dashoffset: 0; stroke: #1f77b4; stroke-width: 1.5"/>
   </g>
   <g id="line2d_35">
    <path d="M 346.383802 303.64 
L 346.383802 26.88 
" clip-path="url(#p1dbb26c097)" style="fill: none; stroke-dasharray: 5.55,2.4; stroke-dashoffset: 0; stroke: #1f77b4; stroke-width: 1.5"/>
   </g>
   <g id="line2d_36">
    <path d="M 378.413539 303.64 
L 378.413539 26.88 
" clip-path="url(#p1dbb26c097)" style="fill: none; stroke-dasharray: 5.55,2.4; stroke-dashoffset: 0; stroke: #1f77b4; stroke-width: 1.5"/>
   </g>
   <g id="line2d_37">
    <path d="M 410.443275 303.64 
L 410.443275 26.88 
" clip-path="url(#p1dbb26c097)" style="fill: none; stroke-dasharray: 5.55,2.4; stroke-dashoffset: 0; stroke: #1f77b4; stroke-width: 1.5"/>
   </g>
   <g id="patch_3">
    <path d="M 73.01 303.64 
L 73.01 26.88 
" style="fill: none; stroke: #000000; stroke-width: 0.8; stroke-linejoin: miter; stroke-linecap: square"/>
   </g>
   <g id="patch_4">
    <path d="M 450 303.64 
L 450 26.88 
" style="fill: none; stroke: #000000; stroke-width: 0.8; stroke-linejoin: miter; stroke-linecap: square"/>
   </g>
   <g id="patch_5">
    <path d="M 73.01 303.64 
L 450 303.64 
" style="fill: none; stroke: #000000; stroke-width: 0.8; stroke-linejoin: miter; stroke-linecap: square"/>
   </g>
   <g id="patch_6">
    <path d="M 73.01 26.88 
L 450 26.88 
" style="fill: none; stroke: #000000; stroke-width: 0.8; stroke-linejoin: miter; stroke-linecap: square"/>
   </g>
   <g id="text_16">
    <!-- Tuning results for faster-lio(RPE) -->
    <g transform="translate(165.325 20.88) scale(0.12 -0.12)">
     <defs>
      <path id="DejaVuSans-54" d="M -19 4666 
L 3928 4666 
L 3928 4134 
L 2272 4134 
L 2272 0 
L 1638 0 
L 1638 4134 
L -19 4134 
L -19 4666 
z
" transform="scale(0.015625)"/>
      <path id="DejaVuSans-75" d="M 544 1381 
L 544 3500 
L 1119 3500 
L 1119 1403 
Q 1119 906 1312 657 
Q 1506 409 1894 409 
Q 2359 409 2629 706 
Q 2900 1003 2900 1516 
L 2900 3500 
L 3475 3500 
L 3475 0 
L 2900 0 
L 2900 538 
Q 2691 219 2414 64 
Q 2138 -91 1772 -91 
Q 1169 -91 856 284 
Q 544 659 544 1381 
z
M 1991 3584 
L 1991 3584 
z
" transform="scale(0.015625)"/>
      <path id="DejaVuSans-67" d="M 2906 1791 
Q 2906 2416 2648 2759 
Q 2391 3103 1925 3103 
Q 1463 3103 1205 2759 
Q 947 2416 947 1791 
Q 947 1169 1205 825 
Q 1463 481 1925 481 
Q 2391 481 2648 825 
Q 2906 1169 2906 1791 
z
M 3481 434 
Q 3481 -459 3084 -895 
Q 2688 -1331 1869 -1331 
Q 1566 -1331 1297 -1286 
Q 1028 -1241 775 -1147 
L 775 -588 
Q 1028 -725 1275 -790 
Q 1522 -856 1778 -856 
Q 2344 -856 2625 -561 
Q 2906 -266 2906 331 
L 2906 616 
Q 2728 306 2450 153 
Q 2172 0 1784 0 
Q 1141 0 747 490 
Q 353 981 353 1791 
Q 353 2603 747 3093 
Q 1141 3584 1784 3584 
Q 2172 3584 2450 3431 
Q 2728 3278 2906 2969 
L 2906 3500 
L 3481 3500 
L 3481 434 
z
" transform="scale(0.015625)"/>
      <path id="DejaVuSans-20" transform="scale(0.015625)"/>
      <path id="DejaVuSans-73" d="M 2834 3397 
L 2834 2853 
Q 2591 2978 2328 3040 
Q 2066 3103 1784 3103 
Q 1356 3103 1142 2972 
Q 928 2841 928 2578 
Q 928 2378 1081 2264 
Q 1234 2150 1697 2047 
L 1894 2003 
Q 2506 1872 2764 1633 
Q 3022 1394 3022 966 
Q 3022 478 2636 193 
Q 2250 -91 1575 -91 
Q 1294 -91 989 -36 
Q 684 19 347 128 
L 347 722 
Q 666 556 975 473 
Q 1284 391 1588 391 
Q 1994 391 2212 530 
Q 2431 669 2431 922 
Q 2431 1156 2273 1281 
Q 2116 1406 1581 1522 
L 1381 1569 
Q 847 1681 609 1914 
Q 372 2147 372 2553 
Q 372 3047 722 3315 
Q 1072 3584 1716 3584 
Q 2034 3584 2315 3537 
Q 2597 3491 2834 3397 
z
" transform="scale(0.015625)"/>
      <path id="DejaVuSans-6c" d="M 603 4863 
L 1178 4863 
L 1178 0 
L 603 0 
L 603 4863 
z
" transform="scale(0.015625)"/>
      <path id="DejaVuSans-66" d="M 2375 4863 
L 2375 4384 
L 1825 4384 
Q 1516 4384 1395 4259 
Q 1275 4134 1275 3809 
L 1275 3500 
L 2222 3500 
L 2222 3053 
L 1275 3053 
L 1275 0 
L 697 0 
L 697 3053 
L 147 3053 
L 147 3500 
L 697 3500 
L 697 3744 
Q 697 4328 969 4595 
Q 1241 4863 1831 4863 
L 2375 4863 
z
" transform="scale(0.015625)"/>
      <path id="DejaVuSans-2d" d="M 313 2009 
L 1997 2009 
L 1997 1497 
L 313 1497 
L 313 2009 
z
" transform="scale(0.015625)"/>
     </defs>
     <use xlink:href="#DejaVuSans-54"/>
     <use xlink:href="#DejaVuSans-75" transform="translate(45.958984 0)"/>
     <use xlink:href="#DejaVuSans-6e" transform="translate(109.337891 0)"/>
     <use xlink:href="#DejaVuSans-69" transform="translate(172.716797 0)"/>
     <use xlink:href="#DejaVuSans-6e" transform="translate(200.5 0)"/>
     <use xlink:href="#DejaVuSans-67" transform="translate(263.878906 0)"/>
     <use xlink:href="#DejaVuSans-20" transform="translate(327.355469 0)"/>
     <use xlink:href="#DejaVuSans-72" transform="translate(359.142578 0)"/>
     <use xlink:href="#DejaVuSans-65" transform="translate(398.005859 0)"/>
     <use xlink:href="#DejaVuSans-73" transform="translate(459.529297 0)"/>
     <use xlink:href="#DejaVuSans-75" transform="translate(511.628906 0)"/>
     <use xlink:href="#DejaVuSans-6c" transform="translate(575.007812 0)"/>
     <use xlink:href="#DejaVuSans-74" transform="translate(602.791016 0)"/>
     <use xlink:href="#DejaVuSans-73" transform="translate(642 0)"/>
     <use xlink:href="#DejaVuSans-20" transform="translate(694.099609 0)"/>
     <use xlink:href="#DejaVuSans-66" transform="translate(725.886719 0)"/>
     <use xlink:href="#DejaVuSans-6f" transform="translate(761.091797 0)"/>
     <use xlink:href="#DejaVuSans-72" transform="translate(822.273438 0)"/>
     <use xlink:href="#DejaVuSans-20" transform="translate(863.386719 0)"/>
     <use xlink:href="#DejaVuSans-66" transform="translate(895.173828 0)"/>
     <use xlink:href="#DejaVuSans-61" transform="translate(930.378906 0)"/>
     <use xlink:href="#DejaVuSans-73" transform="translate(991.658203 0)"/>
     <use xlink:href="#DejaVuSans-74" transform="translate(1043.757812 0)"/>
     <use xlink:href="#DejaVuSans-65" transform="translate(1082.966797 0)"/>
     <use xlink:href="#DejaVuSans-72" transform="translate(1144.490234 0)"/>
     <use xlink:href="#DejaVuSans-2d" transform="translate(1179.228516 0)"/>
     <use xlink:href="#DejaVuSans-6c" transform="translate(1215.3125 0)"/>
     <use xlink:href="#DejaVuSans-69" transform="translate(1243.095703 0)"/>
     <use xlink:href="#DejaVuSans-6f" transform="translate(1270.878906 0)"/>
     <use xlink:href="#DejaVuSans-28" transform="translate(1332.060547 0)"/>
     <use xlink:href="#DejaVuSans-52" transform="translate(1371.074219 0)"/>
     <use xlink:href="#DejaVuSans-50" transform="translate(1440.556641 0)"/>
     <use xlink:href="#DejaVuSans-45" transform="translate(1500.859375 0)"/>
     <use xlink:href="#DejaVuSans-29" transform="translate(1564.042969 0)"/>
    </g>
   </g>
   <g id="legend_1">
    <g id="patch_7">
     <path d="M 80.01 298.64 
L 215.76 298.64 
Q 217.76 298.64 217.76 296.64 
L 217.76 282.961875 
Q 217.76 280.961875 215.76 280.961875 
L 80.01 280.961875 
Q 78.01 280.961875 78.01 282.961875 
L 78.01 296.64 
Q 78.01 298.64 80.01 298.64 
z
" style="fill: #ffffff; opacity: 0.8; stroke: #cccccc; stroke-linejoin: miter"/>
    </g>
    <g id="line2d_38">
     <path d="M 82.01 289.060312 
L 92.01 289.060312 
L 102.01 289.060312 
" style="fill: none; stroke: #1f77b4; stroke-width: 1.5; stroke-linecap: square"/>
     <g>
      <use xlink:href="#mff7faf97fb" x="92.01" y="289.060312" style="fill: #1f77b4; stroke: #1f77b4"/>
     </g>
    </g>
    <g id="text_17">
     <!-- Simulated Annealing -->
     <g transform="translate(110.01 292.560312) scale(0.1 -0.1)">
      <defs>
       <path id="DejaVuSans-6d" d="M 3328 2828 
Q 3544 3216 3844 3400 
Q 4144 3584 4550 3584 
Q 5097 3584 5394 3201 
Q 5691 2819 5691 2113 
L 5691 0 
L 5113 0 
L 5113 2094 
Q 5113 2597 4934 2840 
Q 4756 3084 4391 3084 
Q 3944 3084 3684 2787 
Q 3425 2491 3425 1978 
L 3425 0 
L 2847 0 
L 2847 2094 
Q 2847 2600 2669 2842 
Q 2491 3084 2119 3084 
Q 1678 3084 1418 2786 
Q 1159 2488 1159 1978 
L 1159 0 
L 581 0 
L 581 3500 
L 1159 3500 
L 1159 2956 
Q 1356 3278 1631 3431 
Q 1906 3584 2284 3584 
Q 2666 3584 2933 3390 
Q 3200 3197 3328 2828 
z
" transform="scale(0.015625)"/>
       <path id="DejaVuSans-64" d="M 2906 2969 
L 2906 4863 
L 3481 4863 
L 3481 0 
L 2906 0 
L 2906 525 
Q 2725 213 2448 61 
Q 2172 -91 1784 -91 
Q 1150 -91 751 415 
Q 353 922 353 1747 
Q 353 2572 751 3078 
Q 1150 3584 1784 3584 
Q 2172 3584 2448 3432 
Q 2725 3281 2906 2969 
z
M 947 1747 
Q 947 1113 1208 752 
Q 1469 391 1925 391 
Q 2381 391 2643 752 
Q 2906 1113 2906 1747 
Q 2906 2381 2643 2742 
Q 2381 3103 1925 3103 
Q 1469 3103 1208 2742 
Q 947 2381 947 1747 
z
" transform="scale(0.015625)"/>
       <path id="DejaVuSans-41" d="M 2188 4044 
L 1331 1722 
L 3047 1722 
L 2188 4044 
z
M 1831 4666 
L 2547 4666 
L 4325 0 
L 3669 0 
L 3244 1197 
L 1141 1197 
L 716 0 
L 50 0 
L 1831 4666 
z
" transform="scale(0.015625)"/>
      </defs>
      <use xlink:href="#DejaVuSans-53"/>
      <use xlink:href="#DejaVuSans-69" transform="translate(63.476562 0)"/>
      <use xlink:href="#DejaVuSans-6d" transform="translate(91.259766 0)"/>
      <use xlink:href="#DejaVuSans-75" transform="translate(188.671875 0)"/>
      <use xlink:href="#DejaVuSans-6c" transform="translate(252.050781 0)"/>
      <use xlink:href="#DejaVuSans-61" transform="translate(279.833984 0)"/>
      <use xlink:href="#DejaVuSans-74" transform="translate(341.113281 0)"/>
      <use xlink:href="#DejaVuSans-65" transform="translate(380.322266 0)"/>
      <use xlink:href="#DejaVuSans-64" transform="translate(441.845703 0)"/>
      <use xlink:href="#DejaVuSans-20" transform="translate(505.322266 0)"/>
      <use xlink:href="#DejaVuSans-41" transform="translate(537.109375 0)"/>
      <use xlink:href="#DejaVuSans-6e" transform="translate(605.517578 0)"/>
      <use xlink:href="#DejaVuSans-6e" transform="translate(668.896484 0)"/>
      <use xlink:href="#DejaVuSans-65" transform="translate(732.275391 0)"/>
      <use xlink:href="#DejaVuSans-61" transform="translate(793.798828 0)"/>
      <use xlink:href="#DejaVuSans-6c" transform="translate(855.078125 0)"/>
      <use xlink:href="#DejaVuSans-69" transform="translate(882.861328 0)"/>
      <use xlink:href="#DejaVuSans-6e" transform="translate(910.644531 0)"/>
      <use xlink:href="#DejaVuSans-67" transform="translate(974.023438 0)"/>
     </g>
    </g>
   </g>
  </g>
 </g>
 <defs>
  <clipPath id="p1dbb26c097">
   <rect x="73.01" y="26.88" width="376.99" height="276.76"/>
  </clipPath>
 </defs>
</svg>
